<svg width="191" height="190" viewBox="0 0 191 190" fill="none" xmlns="http://www.w3.org/2000/svg">
<path d="M13.0766 125.396L12.6042 127.159L12.6775 128.983L13.749 155.647L14.1027 164.45L22.6075 166.749L55.6984 175.695L59.5216 176.729L63.209 175.284L100.474 160.679L101.731 160.186L102.847 159.426L128.566 141.921L134.861 137.637L133.665 130.117L132.78 124.545L141.371 129.356L147.631 120.681L165.84 95.4463L173.211 85.2315L162.651 78.3645L144.265 66.4085L133.343 28.5947L129.711 16.0194L117.498 20.7278L97.2863 28.5197L91.4967 30.7517L89.9712 36.7662L84.6136 57.8894L58.4414 62.0497L54.9374 62.6066L52.2997 64.9794L24.5928 89.9037L21.9476 92.2831L21.0269 95.7198L13.0766 125.396Z" fill="url(#paint0_linear_107_78)"/>
<path d="M13.0766 125.396L12.6042 127.159L12.6775 128.983L13.749 155.647L14.1027 164.45L22.6075 166.749L55.6984 175.695L59.5216 176.729L63.209 175.284L100.474 160.679L101.731 160.186L102.847 159.426L128.566 141.921L134.861 137.637L133.665 130.117L132.78 124.545L141.371 129.356L147.631 120.681L165.84 95.4463L173.211 85.2315L162.651 78.3645L144.265 66.4085L133.343 28.5947L129.711 16.0194L117.498 20.7278L97.2863 28.5197L91.4967 30.7517L89.9712 36.7662L84.6136 57.8894L58.4414 62.0497L54.9374 62.6066L52.2997 64.9794L24.5928 89.9037L21.9476 92.2831L21.0269 95.7198L13.0766 125.396Z" fill="white"/>
<path d="M13.0766 125.396L12.6042 127.159L12.6775 128.983L13.749 155.647L14.1027 164.45L22.6075 166.749L55.6984 175.695L59.5216 176.729L63.209 175.284L100.474 160.679L101.731 160.186L102.847 159.426L128.566 141.921L134.861 137.637L133.665 130.117L132.78 124.545L141.371 129.356L147.631 120.681L165.84 95.4463L173.211 85.2315L162.651 78.3645L144.265 66.4085L133.343 28.5947L129.711 16.0194L117.498 20.7278L97.2863 28.5197L91.4967 30.7517L89.9712 36.7662L84.6136 57.8894L58.4414 62.0497L54.9374 62.6066L52.2997 64.9794L24.5928 89.9037L21.9476 92.2831L21.0269 95.7198L13.0766 125.396Z" stroke="url(#paint1_linear_107_78)" stroke-width="24"/>
<defs>
<linearGradient id="paint0_linear_107_78" x1="104.531" y1="43.1972" x2="38.2603" y2="162.117" gradientUnits="userSpaceOnUse">
<stop stop-color="#8FF8FF"/>
<stop offset="1" stop-color="#F9FFB9"/>
</linearGradient>
<linearGradient id="paint1_linear_107_78" x1="80.2638" y1="39.9516" x2="98.9852" y2="157.728" gradientUnits="userSpaceOnUse">
<stop stop-color="#679A7E"/>
<stop offset="1" stop-color="#437497"/>
</linearGradient>
</defs>
</svg>
