<svg width="220" height="56" viewBox="0 0 220 56" fill="none" xmlns="http://www.w3.org/2000/svg">
<path d="M14 0H15.76V56H14V0ZM0.559998 16.4H29.2V29.76H0.559998V16.4Z" fill="#4D21FF"/>
<path d="M29.8456 12H31.6056V20.4C32.8323 17.84 34.5923 15.8133 36.8856 14.32C39.179 12.7733 41.8723 12 44.9656 12C47.739 12 50.1656 12.6667 52.2456 14C54.379 15.3333 56.0056 17.1733 57.1256 19.52C58.299 21.8667 58.8856 24.5067 58.8856 27.44V36.48H57.1256V34.48C57.1256 32.6133 56.8056 31.0667 56.1656 29.84C55.579 28.56 54.5923 27.6 53.2056 26.96C51.819 26.2667 49.979 25.92 47.6856 25.92H41.0456C38.7523 25.92 36.9123 26.2667 35.5256 26.96C34.139 27.6 33.1256 28.56 32.4856 29.84C31.899 31.0667 31.6056 32.6133 31.6056 34.48V56H29.8456V12Z" fill="#4D21FF"/>
<path d="M72.3775 56C69.3375 56 66.7775 55.4933 64.6975 54.48C62.6708 53.4133 61.1508 51.9467 60.1375 50.08C59.1242 48.16 58.6175 45.9733 58.6175 43.52V41.68C58.6175 38.32 59.6042 35.5733 61.5775 33.44C63.6042 31.3067 66.9375 30 71.5775 29.52L86.6975 27.92V35.52L68.2175 37.36C65.9775 37.5733 64.2975 37.8667 63.1775 38.24C62.0575 38.6133 61.3108 39.0667 60.9375 39.6C60.5642 40.1333 60.3775 40.8533 60.3775 41.76C60.3775 43.0933 60.9108 44.1067 61.9775 44.8C63.0442 45.4933 64.9908 45.84 67.8175 45.84H75.6575C78.4308 45.84 80.5908 45.5467 82.1375 44.96C83.6842 44.32 84.7508 43.4133 85.3375 42.24C85.9242 41.0667 86.2175 39.5467 86.2175 37.68V30.4C86.2175 28.64 85.9508 27.1733 85.4175 26C84.8842 24.7733 83.8975 23.84 82.4575 23.2C81.0708 22.5067 79.1508 22.16 76.6975 22.16H69.8975C67.8708 22.16 66.2442 22.4 65.0175 22.88C63.8442 23.3067 62.9375 23.9467 62.2975 24.8C61.7108 25.6533 61.2842 26.6933 61.0175 27.92H59.2575C59.4708 25.1467 60.1642 22.56 61.3375 20.16C62.5108 17.7067 64.1642 15.7333 66.2975 14.24C68.4842 12.7467 71.0442 12 73.9775 12C77.0708 12 79.6575 12.7733 81.7375 14.32C83.8708 15.8133 85.4442 17.84 86.4575 20.4C87.4708 22.9067 87.9775 25.6533 87.9775 28.64V56H86.2175V47.52C85.0442 50.1333 83.2842 52.2133 80.9375 53.76C78.5908 55.2533 75.7375 56 72.3775 56Z" fill="#4D21FF"/>
<path d="M82.6219 0H84.5419L96.1419 39.92H110.702L122.222 0H124.062L107.982 56H98.7019L82.6219 0Z" fill="#4D21FF"/>
<path d="M122.428 0H124.348L135.948 39.92H150.508L162.028 0H163.868L147.788 56H138.508L122.428 0Z" fill="#4D21FF"/>
<path d="M163.914 0H165.674V56H163.914V0Z" fill="#4D21FF"/>
<path d="M167.68 0H169.44V56H167.68V0Z" fill="url(#paint0_linear_80_32)"/>
<path d="M171.236 0H172.996V56H171.236V0Z" fill="url(#paint1_linear_80_32)"/>
<path d="M174.792 0H176.552V56H174.792V0Z" fill="url(#paint2_linear_80_32)"/>
<path d="M178.349 0H180.109V56H178.349V0Z" fill="url(#paint3_linear_80_32)"/>
<path d="M181.905 0H183.665V56H181.905V0Z" fill="url(#paint4_linear_80_32)"/>
<path d="M185.461 0H187.221V56H185.461V0Z" fill="url(#paint5_linear_80_32)"/>
<path d="M189.018 0H190.777V56H189.018V0Z" fill="url(#paint6_linear_80_32)"/>
<path d="M192.574 0H194.334V56H192.574V0Z" fill="url(#paint7_linear_80_32)"/>
<path d="M196.13 0H197.89V56H196.13V0Z" fill="url(#paint8_linear_80_32)"/>
<path d="M199.686 0H201.446V56H199.686V0Z" fill="url(#paint9_linear_80_32)"/>
<path d="M203.242 0H205.003V56H203.242V0Z" fill="url(#paint10_linear_80_32)"/>
<path d="M206.799 0H208.559V56H206.799V0Z" fill="url(#paint11_linear_80_32)"/>
<path d="M210.355 0H212.115V56H210.355V0Z" fill="url(#paint12_linear_80_32)"/>
<path d="M213.911 0H215.671V56H213.911V0Z" fill="url(#paint13_linear_80_32)"/>
<path d="M217.467 0H219.227V56H217.467V0Z" fill="url(#paint14_linear_80_32)"/>
<defs>
<linearGradient id="paint0_linear_80_32" x1="166" y1="21.5" x2="222" y2="21.5" gradientUnits="userSpaceOnUse">
<stop stop-color="#4D21FF"/>
<stop offset="1" stop-color="#4D21FF" stop-opacity="0"/>
</linearGradient>
<linearGradient id="paint1_linear_80_32" x1="166" y1="21.5" x2="222" y2="21.5" gradientUnits="userSpaceOnUse">
<stop stop-color="#4D21FF"/>
<stop offset="1" stop-color="#4D21FF" stop-opacity="0"/>
</linearGradient>
<linearGradient id="paint2_linear_80_32" x1="166" y1="21.5" x2="222" y2="21.5" gradientUnits="userSpaceOnUse">
<stop stop-color="#4D21FF"/>
<stop offset="1" stop-color="#4D21FF" stop-opacity="0"/>
</linearGradient>
<linearGradient id="paint3_linear_80_32" x1="166" y1="21.5" x2="222" y2="21.5" gradientUnits="userSpaceOnUse">
<stop stop-color="#4D21FF"/>
<stop offset="1" stop-color="#4D21FF" stop-opacity="0"/>
</linearGradient>
<linearGradient id="paint4_linear_80_32" x1="166" y1="21.5" x2="222" y2="21.5" gradientUnits="userSpaceOnUse">
<stop stop-color="#4D21FF"/>
<stop offset="1" stop-color="#4D21FF" stop-opacity="0"/>
</linearGradient>
<linearGradient id="paint5_linear_80_32" x1="166" y1="21.5" x2="222" y2="21.5" gradientUnits="userSpaceOnUse">
<stop stop-color="#4D21FF"/>
<stop offset="1" stop-color="#4D21FF" stop-opacity="0"/>
</linearGradient>
<linearGradient id="paint6_linear_80_32" x1="166" y1="21.5" x2="222" y2="21.5" gradientUnits="userSpaceOnUse">
<stop stop-color="#4D21FF"/>
<stop offset="1" stop-color="#4D21FF" stop-opacity="0"/>
</linearGradient>
<linearGradient id="paint7_linear_80_32" x1="166" y1="21.5" x2="222" y2="21.5" gradientUnits="userSpaceOnUse">
<stop stop-color="#4D21FF"/>
<stop offset="1" stop-color="#4D21FF" stop-opacity="0"/>
</linearGradient>
<linearGradient id="paint8_linear_80_32" x1="166" y1="21.5" x2="222" y2="21.5" gradientUnits="userSpaceOnUse">
<stop stop-color="#4D21FF"/>
<stop offset="1" stop-color="#4D21FF" stop-opacity="0"/>
</linearGradient>
<linearGradient id="paint9_linear_80_32" x1="166" y1="21.5" x2="222" y2="21.5" gradientUnits="userSpaceOnUse">
<stop stop-color="#4D21FF"/>
<stop offset="1" stop-color="#4D21FF" stop-opacity="0"/>
</linearGradient>
<linearGradient id="paint10_linear_80_32" x1="166" y1="21.5" x2="222" y2="21.5" gradientUnits="userSpaceOnUse">
<stop stop-color="#4D21FF"/>
<stop offset="1" stop-color="#4D21FF" stop-opacity="0"/>
</linearGradient>
<linearGradient id="paint11_linear_80_32" x1="166" y1="21.5" x2="222" y2="21.5" gradientUnits="userSpaceOnUse">
<stop stop-color="#4D21FF"/>
<stop offset="1" stop-color="#4D21FF" stop-opacity="0"/>
</linearGradient>
<linearGradient id="paint12_linear_80_32" x1="166" y1="21.5" x2="222" y2="21.5" gradientUnits="userSpaceOnUse">
<stop stop-color="#4D21FF"/>
<stop offset="1" stop-color="#4D21FF" stop-opacity="0"/>
</linearGradient>
<linearGradient id="paint13_linear_80_32" x1="166" y1="21.5" x2="222" y2="21.5" gradientUnits="userSpaceOnUse">
<stop stop-color="#4D21FF"/>
<stop offset="1" stop-color="#4D21FF" stop-opacity="0"/>
</linearGradient>
<linearGradient id="paint14_linear_80_32" x1="166" y1="21.5" x2="222" y2="21.5" gradientUnits="userSpaceOnUse">
<stop stop-color="#4D21FF"/>
<stop offset="1" stop-color="#4D21FF" stop-opacity="0"/>
</linearGradient>
</defs>
</svg>
